<?xml version="1.0" encoding="UTF-8"?>
<svg version="1.1" xmlns="http://www.w3.org/2000/svg" width="2000" height="2000">
<path d="M0 0 C1.52280378 1.13674085 3.02206501 2.3055046 4.5 3.5 C5.48871094 4.27472656 6.47742187 5.04945313 7.49609375 5.84765625 C16.65600598 13.55011177 23.54632806 26.18746464 24.76171875 38.05566406 C25.97599356 57.15350844 22.02213461 71.36249244 9.75 86.25 C3.64598873 92.86366658 -4.13158727 97.33859963 -12.5 100.5 C-10.85329861 109.34228749 -7.8130464 117.6736027 -4.8125 126.125 C-4.52888611 126.92767303 -4.24527222 127.73034607 -3.95306396 128.55734253 C7.1560261 159.95650281 19.46054654 190.85694478 32.5 221.5 C32.99935059 222.6765918 33.49870117 223.85318359 34.01318359 225.06542969 C38.28304263 235.10115676 42.61902173 245.04912636 47.609375 254.75 C49.59642302 258.63751443 51.43792289 262.59067861 53.29394531 266.54199219 C66.92353607 295.47263717 82.9586538 323.43416913 101.5 349.5 C106.95343811 344.96353499 106.95343811 344.96353499 111.8125 339.8125 C114.59762702 336.53514696 117.460056 333.35023677 120.375 330.1875 C124.44540056 325.72477168 128.30176909 321.13742 132.09375 316.4375 C134.79779274 313.13646081 137.5812619 309.91248327 140.375 306.6875 C144.8300256 301.52834517 149.11276935 296.26531113 153.29125977 290.88037109 C156.20053796 287.13550971 159.16963722 283.4492273 162.18530273 279.78955078 C168.70530554 271.86772291 174.84736487 263.71923336 180.890625 255.4296875 C184.58102049 250.37001413 188.35140512 245.37273692 192.125 240.375 C197.79274119 232.84959232 203.29891543 225.22845986 208.69140625 217.50390625 C210.5904585 214.78425131 212.51525373 212.08600294 214.46484375 209.40234375 C214.9343042 208.75442871 215.40376465 208.10651367 215.88745117 207.43896484 C216.7732074 206.21912568 217.66250674 205.00184867 218.5559082 203.78759766 C220.80893862 200.93688159 220.80893862 200.93688159 221.5 197.5 C219.94616853 195.96762449 219.94616853 195.96762449 217.9375 194.375 C206.24713094 184.35763428 198.72025158 171.59404904 197.1484375 156.015625 C196.77601719 140.78024857 200.79041521 126.68956512 210.9375 115.125 C212.43991268 113.56537624 213.95918261 112.02169377 215.5 110.5 C216.31210938 109.65501953 216.31210938 109.65501953 217.140625 108.79296875 C227.96965308 98.42882319 242.45829395 94.97529621 256.9921875 95.2578125 C272.19269628 96.30729083 286.22549503 103.32325356 296.5 114.5 C307.829106 127.80614607 310.82081995 143.50928892 309.5 160.5 C307.22783358 175.96181539 298.11743754 188.9777198 285.8125 198.3125 C278.19268865 203.3174382 269.83116422 206.29947666 260.76342773 207.05908203 C259.77664536 207.14336456 258.78986298 207.22764709 257.7731781 207.31448364 C257.02302933 207.37570404 256.27288055 207.43692444 255.5 207.5 C257.20806029 240.3855722 259.28216937 273.19942696 262.71699142 305.95443344 C262.93317999 308.02120058 263.1462365 310.08827025 263.3586731 312.15542603 C265.41458918 332.05697144 268.23009562 351.76822617 271.5 371.5 C271.65244171 372.42249542 271.80488342 373.34499084 271.96194458 374.29544067 C272.72146882 378.86796297 273.50772177 383.43519231 274.3125 388 C274.52841797 389.23878906 274.74433594 390.47757813 274.96679688 391.75390625 C275.47536871 394.6697181 275.98632208 397.58508429 276.5 400.5 C296.09088017 391.03878753 314.97562983 380.92980207 333.5 369.5 C334.40878906 368.94151367 335.31757812 368.38302734 336.25390625 367.80761719 C347.23485651 361.03768744 357.95333394 353.92679689 368.5 346.5 C369.07492187 346.09604004 369.64984375 345.69208008 370.2421875 345.27587891 C385.25116676 334.70647963 400.02580529 323.79023785 414.5 312.5 C415.03866699 312.08218262 415.57733398 311.66436523 416.13232422 311.23388672 C425.43250558 304.01967671 434.53211286 296.57637678 443.59765625 289.0703125 C446.11630964 286.9912598 448.65188999 284.93331871 451.1875 282.875 C455.96416439 278.97538628 460.64121296 274.96686589 465.30932617 270.9387207 C468.8229363 267.91352594 472.3815664 264.9625681 476 262.0625 C481.67169902 257.46314584 486.96348563 252.4935621 492.28515625 247.5 C495.27506938 244.69733396 498.33364695 241.98823539 501.4375 239.3125 C504.71597735 236.43141384 507.91445751 233.46211863 511.11376953 230.49365234 C514.48823375 227.37710895 517.9529266 224.41554698 521.5 221.5 C520.95472656 220.73429687 520.95472656 220.73429687 520.3984375 219.953125 C510.3251653 205.38562366 504.14030197 190.48963829 507.15625 172.609375 C510.44942337 156.77222209 518.64480269 143.63141923 532.25 134.6875 C545.96067074 126.21988797 560.81107441 124.01298184 576.765625 126.91162109 C584.47679343 128.84875328 591.28895854 132.61301776 597.5 137.5 C598.18578125 138.02335938 598.8715625 138.54671875 599.578125 139.0859375 C610.48465669 147.952698 617.82866794 161.51117965 619.5 175.5 C620.90204665 191.61275148 616.15715456 206.70107573 605.86303711 219.12841797 C596.43065613 229.91745342 583.67523403 236.49257555 569.5 238.5 C561.84583149 238.91296016 554.8991643 238.50655303 547.5 236.5 C547.38576187 237.11406204 547.27152374 237.72812408 547.15382385 238.36079407 C546.01802994 244.27327687 544.60241278 250.01987452 542.90234375 255.79296875 C542.64072449 256.69463776 542.37910522 257.59630676 542.10955811 258.52529907 C541.53131257 260.51670271 540.95120353 262.50756596 540.36947632 264.49795532 C539.05506669 268.99631881 537.7504831 273.49751722 536.44514465 277.9985199 C535.7066393 280.54484136 534.96774714 283.0910474 534.22831726 285.63710022 C529.11769287 303.23955295 524.06284766 320.85809069 519.00258255 338.47507095 C518.1830185 341.32810079 517.36325466 344.18107314 516.54342651 347.0340271 C509.84324397 370.35060282 503.15728307 393.67113852 496.5 417 C489.54783848 441.36194741 482.56164021 465.71400974 475.5625 490.0625 C475.30143841 490.97070496 475.04037682 491.87890991 474.77140427 492.81463623 C472.07878326 502.18193418 469.38584537 511.54914101 466.69272709 520.91629601 C460.93525265 540.94190895 455.17957606 560.9680383 449.42591476 580.99474716 C448.85154269 582.99394081 448.27715362 584.99312957 447.70274734 586.99231339 C441.75755713 607.68423388 435.81530564 628.37696799 429.90234375 649.078125 C429.68767015 649.82967865 429.47299656 650.5812323 429.2518177 651.3555603 C427.09558642 658.90507306 424.94131006 666.45514039 422.78930664 674.00585938 C422.2770327 675.80201691 422.2770327 675.80201691 421.75440979 677.63446045 C421.13404599 679.80978509 420.51422694 681.98526522 419.89512634 684.16094971 C419.35734146 686.04639255 418.81580031 687.93076973 418.26977539 689.81384277 C417.74145903 691.65742057 417.23114117 693.50622287 416.73608398 695.35900879 C416.48737549 696.26050659 416.23866699 697.16200439 415.98242188 698.09082031 C415.76839722 698.89239563 415.55437256 699.69397095 415.3338623 700.51983643 C414.5 702.5 414.5 702.5 411.5 704.5 C409.41856619 705.0350725 407.31653568 705.49166094 405.20703125 705.90234375 C403.94439453 706.15137451 402.68175781 706.40040527 401.38085938 706.65698242 C400.02477095 706.91731837 398.66865055 707.17748784 397.3125 707.4375 C395.93413723 707.70688839 394.555882 707.97682757 393.17773438 708.24731445 C385.0909314 709.82943679 376.99469959 711.36055311 368.890625 712.8515625 C364.29762282 713.72994771 359.73422867 714.72911361 355.171875 715.75390625 C352.19635018 716.35850757 349.23284954 716.89289999 346.23828125 717.38842773 C345.16954773 717.56530624 344.10081421 717.74218475 342.99969482 717.92442322 C332.91678492 719.58270748 322.83137757 721.22551753 312.745121 722.86330414 C308.86333843 723.49364679 304.98174539 724.1251083 301.10058594 724.75927734 C297.30052822 725.38016649 293.50000134 725.99810842 289.69915009 726.61412048 C288.27200849 726.84590465 286.84502447 727.07866164 285.41822052 727.31251526 C275.46877952 728.94222554 265.50748261 730.29183849 255.5 731.5 C252.77605542 731.85039188 250.05425575 732.21445723 247.33203125 732.578125 C185.71451422 740.6836687 123.60223484 746.05189292 61.4912262 748.2832489 C58.41934299 748.39371875 55.34755451 748.50578042 52.27589226 748.62225151 C33.70170026 749.32435916 15.15462684 749.67522498 -3.43359375 749.703125 C-5.4442875 749.70744144 -7.45498124 749.71175826 -9.46567494 749.7160995 C-15.07246277 749.72778091 -20.67924104 749.73539844 -26.28603977 749.7388947 C-32.6176005 749.74287473 -38.94900815 749.75494476 -45.28051758 749.78125 C-85.7814308 749.94563012 -126.06560687 748.919559 -166.5 746.5 C-167.42842587 746.44449226 -168.35685173 746.38898453 -169.31341171 746.33179474 C-179.34282229 745.72525678 -189.360193 745.00177131 -199.375 744.1875 C-201.36761828 744.03009356 -203.3602367 743.87268892 -205.35286236 743.7153759 C-256.30952199 739.67399472 -307.08927032 733.98947606 -357.5 725.5 C-360.87648835 724.93399308 -364.25316873 724.36913405 -367.62997437 723.80502319 C-370.81441651 723.27295496 -373.99843271 722.73862905 -377.18164062 722.19921875 C-383.08500612 721.20482815 -388.98904184 720.27511141 -394.91796875 719.4453125 C-399.57380303 718.79159457 -404.15361577 718.0450604 -408.75 717.0625 C-415.22387028 715.72167749 -421.71349446 714.60022245 -428.24707031 713.59008789 C-432.78675179 712.86683923 -437.07756669 711.78101734 -441.5 710.5 C-442.99406232 710.28656253 -444.49495425 710.11231685 -446 710 C-450.02846819 709.60862453 -453.60746902 708.6486157 -457.5 707.5 C-463.81376587 706.07336692 -470.15220663 704.76563945 -476.5 703.5 C-485.14977909 673.88858301 -493.73866798 644.26031807 -502.23828125 614.60546875 C-502.4476982 613.87482468 -502.65711515 613.14418061 -502.87287807 612.39139581 C-505.50209945 603.21752781 -508.1294525 594.04312512 -510.75625181 584.86856335 C-513.34369203 575.83172858 -515.93282968 566.79538024 -518.52197266 557.7590332 C-519.48590634 554.3947617 -520.44983261 551.03048807 -521.41375732 547.66621399 C-521.65261972 546.83254616 -521.89148212 545.99887833 -522.13758278 545.13994783 C-523.82392258 539.25429055 -525.5100575 533.36857461 -527.19610596 527.48283386 C-535.91445186 497.04877291 -544.64311017 466.6176778 -553.375 436.1875 C-556.17455189 426.43101045 -558.97402397 416.674498 -561.7734375 406.91796875 C-562.12016951 405.70956015 -562.46690151 404.50115154 -562.82414055 403.2561245 C-568.15845473 384.66505184 -573.48999561 366.07318533 -578.82016242 347.48092324 C-580.34110624 342.17570687 -581.8621533 336.87052012 -583.38327026 331.56535339 C-583.59610338 330.82305754 -583.8089365 330.08076169 -584.0282191 329.31597203 C-584.88284973 326.33529131 -585.73748277 323.35461128 -586.59212756 320.37393463 C-589.0863845 311.67489582 -591.58027833 302.97575314 -594.07353866 294.27642864 C-595.62050996 288.8789502 -597.16792039 283.48159778 -598.71566689 278.08434159 C-599.60924271 274.96822831 -600.50254423 271.85203686 -601.39543533 268.73572731 C-602.36917875 265.33732791 -603.34367967 261.93914659 -604.31835938 258.54101562 C-604.73880177 257.07260743 -604.73880177 257.07260743 -605.16773796 255.57453442 C-606.9008206 249.53604338 -608.68072334 243.51308479 -610.5 237.5 C-611.53125 237.665 -612.5625 237.83 -613.625 238 C-630.23281656 239.9555777 -645.80234378 237.60883271 -659.5 227.5 C-671.60986738 217.3039098 -679.98492686 204.44066203 -681.72314453 188.44677734 C-682.96565587 171.51512595 -678.27563819 157.24380405 -667.25 144.3125 C-656.44825911 132.80747381 -642.86236659 126.55021945 -627.1640625 125.31640625 C-612.98198016 124.89343186 -598.95818974 130.00837123 -588.5 139.5 C-587.75105469 140.12261719 -587.00210938 140.74523437 -586.23046875 141.38671875 C-576.78349526 149.83588584 -569.84482455 163.53398711 -569.12890625 176.25 C-568.77830644 191.19804277 -570.47650822 203.28802275 -579.94921875 215.44921875 C-581.42736494 217.40394608 -582.43910123 219.3010514 -583.5 221.5 C-572.1097251 232.23012292 -560.66383223 242.83553117 -548.74829102 252.98242188 C-545.03853437 256.15082548 -541.40341603 259.38385726 -537.8125 262.6875 C-533.4847306 266.6556734 -529.02122506 270.39492191 -524.453125 274.08203125 C-521.06641087 276.85501544 -517.7506135 279.70243136 -514.4375 282.5625 C-509.75007227 286.60026006 -505.01973236 290.55902655 -500.1640625 294.39453125 C-498.15013951 295.98618006 -496.14617161 297.58747421 -494.1484375 299.19921875 C-448.17872857 336.25347816 -399.61416227 370.47524343 -346.5 396.5 C-343.83120176 397.82911553 -341.16551891 399.1643114 -338.5 400.5 C-338.35304688 399.51 -338.35304688 399.51 -338.203125 398.5 C-336.91931937 390.00032135 -335.51616048 381.52285432 -334.08496094 373.046875 C-333.55011038 369.86563964 -333.02469466 366.68292621 -332.5 363.5 C-332.38936218 362.84200409 -332.27872437 362.18400818 -332.16473389 361.506073 C-329.81556964 347.49250214 -328.08452334 333.43112655 -326.5 319.3125 C-326.36960327 318.15792297 -326.23920654 317.00334595 -326.1048584 315.81378174 C-322.81126449 286.49857801 -320.68215316 257.1519393 -319.14550781 227.69677734 C-318.78895406 220.93321156 -318.34859127 214.22173615 -317.5 207.5 C-318.510625 207.603125 -319.52125 207.70625 -320.5625 207.8125 C-333.90497538 207.76518626 -346.92351913 200.04532389 -356.3125 191.1875 C-360.56197901 186.73276887 -363.61604193 181.9143987 -366.5 176.5 C-367.36625 174.9840625 -367.36625 174.9840625 -368.25 173.4375 C-373.37312104 161.39816555 -373.91663875 144.58592955 -369.4375 132.3125 C-368.52256735 130.34385278 -367.54395552 128.40337345 -366.5 126.5 C-365.96890625 125.52804687 -365.4378125 124.55609375 -364.890625 123.5546875 C-357.19280054 110.59550596 -346.06502777 101.63910394 -331.625 97 C-315.78086407 93.03896602 -301.02053791 95.78357839 -286.83203125 103.48828125 C-273.67357586 111.43271797 -265.18511991 123.72262162 -260.95141602 138.40209961 C-260.14928547 142.12990263 -260.31544269 145.88848754 -260.3125 149.6875 C-260.30025391 150.50025391 -260.28800781 151.31300781 -260.27539062 152.15039062 C-260.24041841 166.80374915 -265.44065433 179.81539336 -275.5 190.5 C-278.08054381 192.94865912 -280.72673761 195.27253925 -283.5 197.5 C-281.89619244 202.34893865 -279.14659168 206.09269063 -276.1875 210.1875 C-275.65624512 210.93080566 -275.12499023 211.67411133 -274.57763672 212.43994141 C-272.89038908 214.79714741 -271.1955831 217.14878494 -269.5 219.5 C-268.43597942 220.98291616 -267.37217349 222.46598637 -266.30859375 223.94921875 C-263.05516056 228.47788961 -259.78172111 232.99179628 -256.5 237.5 C-255.93522949 238.27633789 -255.37045898 239.05267578 -254.78857422 239.85253906 C-243.65214996 255.13486894 -232.15958098 270.10649658 -220.18334961 284.74072266 C-216.72663059 288.96847079 -213.34654097 293.24728754 -210 297.5625 C-204.61526676 304.47899543 -198.8838044 311.06812385 -193.10546875 317.65625 C-191.55569911 319.43603411 -190.02420551 321.22955062 -188.5 323.03125 C-183.09351803 329.42138022 -177.57332247 335.68001266 -171.875 341.8125 C-171.27051025 342.46541016 -170.66602051 343.11832031 -170.04321289 343.79101562 C-169.47981201 344.39236328 -168.91641113 344.99371094 -168.3359375 345.61328125 C-167.83626465 346.14735596 -167.3365918 346.68143066 -166.82177734 347.23168945 C-165.50417168 348.6214896 -165.50417168 348.6214896 -163.5 349.5 C-148.21459067 326.4905976 -134.31282201 302.97418336 -121.5 278.5 C-120.99645996 277.53964844 -120.49291992 276.57929687 -119.97412109 275.58984375 C-90.84228949 219.64116416 -69.48495569 159.8426657 -48.5 100.5 C-50.13884155 100.05648193 -50.13884155 100.05648193 -51.81079102 99.60400391 C-64.04812247 95.94195554 -74.05145151 85.9126378 -80.1875 75.0078125 C-87.50057181 61.03462173 -90.32547847 45.9575493 -85.5 30.5 C-79.55004361 15.33452975 -70.32941244 3.19290474 -55.375 -4.00390625 C-37.34129542 -11.76105123 -16.46047997 -11.12786886 0 0 Z " fill="#FBDF00" transform="translate(1018.5,617.5)"/>
<path d="M0 0 C11.6427425 8.56130724 19.93927246 20.77564533 23 35 C23.21625181 38.05987223 23.18512447 41.12069089 23.1875 44.1875 C23.19974609 45.00025391 23.21199219 45.81300781 23.22460938 46.65039062 C23.25958159 61.30374915 18.05934567 74.31539336 8 85 C5.41945619 87.44865912 2.77326239 89.77253925 0 92 C1.60380756 96.84893865 4.35340832 100.59269063 7.3125 104.6875 C8.10938232 105.8024585 8.10938232 105.8024585 8.92236328 106.93994141 C10.60961092 109.29714741 12.3044169 111.64878494 14 114 C15.06402058 115.48291616 16.12782651 116.96598637 17.19140625 118.44921875 C20.44483944 122.97788961 23.71827889 127.49179628 27 132 C27.56477051 132.77633789 28.12954102 133.55267578 28.71142578 134.35253906 C39.84785004 149.63486894 51.34041902 164.60649658 63.31665039 179.24072266 C66.77336941 183.46847079 70.15345903 187.74728754 73.5 192.0625 C78.88473324 198.97899543 84.6161956 205.56812385 90.39453125 212.15625 C91.94430089 213.93603411 93.47579449 215.72955062 95 217.53125 C100.97998191 224.59606958 107.12119674 231.44771684 113.54467773 238.11523438 C114.11130127 238.71013672 114.6779248 239.30503906 115.26171875 239.91796875 C115.76662842 240.44156982 116.27153809 240.9651709 116.79174805 241.50463867 C118 243 118 243 119 246 C114.07672752 254.72209384 106.58890174 262.48661771 100 270 C99.54189941 270.52271484 99.08379883 271.04542969 98.61181641 271.58398438 C92.85691465 278.10606998 86.8252831 284.17645726 80.3125 289.94140625 C79.549375 290.62074219 78.78625 291.30007813 78 292 C77.16537483 292.63962677 77.16537483 292.63962677 76.31388855 293.29217529 C74.7464511 294.9585776 74.7464511 294.9585776 75.0617218 297.40338135 C75.26089706 298.38691589 75.46007233 299.37045044 75.6652832 300.38378906 C76.69946144 306.12181027 77.49472412 311.82759836 78.12573242 317.62402344 C78.22306325 318.50507028 78.32039408 319.38611712 78.42067432 320.29386234 C78.73477815 323.1487646 79.04516305 326.00405763 79.35546875 328.859375 C79.58003505 330.90675857 79.80483825 332.95411618 80.02986145 335.00144958 C80.62878243 340.4573873 81.22415119 345.91370714 81.81878662 351.37011337 C82.31229806 355.89398696 82.80805335 360.41761343 83.30384636 364.94123745 C85.61396188 386.01991466 87.90993382 407.10010968 90.17578125 428.18359375 C90.25645529 428.93403835 90.33712933 429.68448296 90.42024803 430.4576683 C91.21927804 437.8922583 92.01528841 445.32715353 92.80541992 452.76269531 C94.07733598 464.6988465 95.41275397 476.62339633 96.86164856 488.53939819 C98.24371744 499.93063175 99.52279931 511.33301537 100.78979492 522.73754883 C101.19537027 526.38324547 101.60449388 530.02853426 102.01367188 533.67382812 C102.27365096 536.00778873 102.53342476 538.34177222 102.79296875 540.67578125 C102.91480026 541.75789383 103.03663177 542.84000641 103.16215515 543.95491028 C103.32781731 545.45509956 103.32781731 545.45509956 103.49682617 546.9855957 C103.59436691 547.86061234 103.69190765 548.73562897 103.79240417 549.63716125 C104 552 104 552 104 556 C104.66 555.67 105.32 555.34 106 555 C107.60626413 554.82931139 109.21859467 554.7142275 110.83154297 554.62695312 C111.8421579 554.57019409 112.85277283 554.51343506 113.89401245 554.45495605 C115.5513591 554.36897156 115.5513591 554.36897156 117.2421875 554.28125 C118.39373322 554.21844849 119.54527893 554.15564697 120.73171997 554.09094238 C123.19147575 553.9577645 125.65135062 553.82677147 128.11132812 553.69775391 C131.76983282 553.50552578 135.42788789 553.30614858 139.0859375 553.10546875 C141.4921639 552.9761227 143.89841339 552.84720547 146.3046875 552.71875 C147.88308914 552.6327655 147.88308914 552.6327655 149.49337769 552.54504395 C171.55209669 551.39909421 193.59631289 550.83904458 215.68359375 550.83203125 C218.16219601 550.82879634 220.6407981 550.82543087 223.11940002 550.82194519 C228.28492675 550.81601729 233.45043692 550.81409827 238.6159668 550.81469727 C243.7855993 550.81477781 248.95514182 550.80793952 254.12475586 550.79418945 C289.46389996 550.70178843 324.70004339 551.29477972 360 553 C360.81010151 553.03894505 361.62020302 553.07789009 362.45485306 553.11801529 C371.91299294 553.57711807 381.36369153 554.12789496 390.8125 554.75 C392.72858566 554.87405212 392.72858566 554.87405212 394.68338013 555.00061035 C460.60983031 559.29054042 526.31744295 566.58591218 591.51855469 577.27001953 C595.5431856 577.92866746 599.57117197 578.56115011 603.6015625 579.18359375 C613.51090271 580.71805978 623.3606184 582.39286949 633.17993164 584.42822266 C641.75495143 586.19536329 650.37750665 587.68705822 659.00708008 589.16186523 C665.50336405 590.29333752 671.86642302 591.65948378 678.25 593.31079102 C682.05694491 594.26489306 685.8874656 594.99990876 689.75 595.6875 C690.45898438 595.81705078 691.16796875 595.94660156 691.8984375 596.08007812 C693.59832813 596.39019331 695.29906851 596.69564551 697 597 C694.37191085 599.62808915 692.44375952 599.69712305 688.8046875 600.40234375 C687.53882813 600.65137451 686.27296875 600.90040527 684.96875 601.15698242 C683.60420078 601.41733378 682.23961678 601.67750294 680.875 601.9375 C679.49206227 602.20679585 678.10924962 602.47673478 676.7265625 602.74731445 C668.62322263 604.32767786 660.51033112 605.85767718 652.390625 607.3515625 C647.79762282 608.22994771 643.23422867 609.22911361 638.671875 610.25390625 C635.69635018 610.85850757 632.73284954 611.39289999 629.73828125 611.88842773 C628.66954773 612.06530624 627.60081421 612.24218475 626.49969482 612.42442322 C616.41678492 614.08270748 606.33137757 615.72551753 596.245121 617.36330414 C592.36333843 617.99364679 588.48174539 618.6251083 584.60058594 619.25927734 C580.80052822 619.88016649 577.00000134 620.49810842 573.19915009 621.11412048 C571.77200849 621.34590465 570.34502447 621.57866164 568.91822052 621.81251526 C558.96877952 623.44222554 549.00748261 624.79183849 539 626 C536.27605542 626.35039188 533.55425575 626.71445723 530.83203125 627.078125 C469.21451422 635.1836687 407.10223484 640.55189292 344.9912262 642.7832489 C341.91934299 642.89371875 338.84755451 643.00578042 335.77589226 643.12225151 C317.20170026 643.82435916 298.65462684 644.17522498 280.06640625 644.203125 C278.0557125 644.20744144 276.04501876 644.21175826 274.03432506 644.2160995 C268.42753723 644.22778091 262.82075896 644.23539844 257.21396023 644.2388947 C250.8823995 644.24287473 244.55099185 644.25494476 238.21948242 644.28125 C197.7185692 644.44563012 157.43439313 643.419559 117 641 C116.07157413 640.94449226 115.14314827 640.88898453 114.18658829 640.83179474 C104.15717771 640.22525678 94.139807 639.50177131 84.125 638.6875 C82.13238172 638.53009356 80.1397633 638.37268892 78.14713764 638.2153759 C27.19047801 634.17399472 -23.58927032 628.48947606 -74 620 C-77.37648835 619.43399308 -80.75316873 618.86913405 -84.12997437 618.30502319 C-87.31441651 617.77295496 -90.49843271 617.23862905 -93.68164062 616.69921875 C-99.58500612 615.70482815 -105.48904184 614.77511141 -111.41796875 613.9453125 C-116.07380303 613.29159457 -120.65361577 612.5450604 -125.25 611.5625 C-131.72387028 610.22167749 -138.21349446 609.10022245 -144.74707031 608.09008789 C-149.28675179 607.36683923 -153.57756669 606.28101734 -158 605 C-159.49406232 604.78656253 -160.99495425 604.61231685 -162.5 604.5 C-166.52846819 604.10862453 -170.10746902 603.1486157 -174 602 C-180.31376587 600.57336692 -186.65220663 599.26563945 -193 598 C-201.64977909 568.38858301 -210.23866798 538.76031807 -218.73828125 509.10546875 C-218.9476982 508.37482468 -219.15711515 507.64418061 -219.37287807 506.89139581 C-222.00209945 497.71752781 -224.6294525 488.54312512 -227.25625181 479.36856335 C-229.84369203 470.33172858 -232.43282968 461.29538024 -235.02197266 452.2590332 C-235.98590634 448.8947617 -236.94983261 445.53048807 -237.91375732 442.16621399 C-238.27205092 440.91571224 -238.27205092 440.91571224 -238.63758278 439.63994783 C-240.32392258 433.75429055 -242.0100575 427.86857461 -243.69610596 421.98283386 C-252.41445186 391.54877291 -261.14311017 361.1176778 -269.875 330.6875 C-272.67455189 320.93101045 -275.47402397 311.174498 -278.2734375 301.41796875 C-278.62016951 300.20956015 -278.96690151 299.00115154 -279.32414055 297.7561245 C-284.65845473 279.16505184 -289.98999561 260.57318533 -295.32016242 241.98092324 C-296.84110624 236.67570687 -298.3621533 231.37052012 -299.88327026 226.06535339 C-300.09610338 225.32305754 -300.3089365 224.58076169 -300.5282191 223.81597203 C-301.38284973 220.83529131 -302.23748277 217.85461128 -303.09212756 214.87393463 C-305.5863845 206.17489582 -308.08027833 197.47575314 -310.57353866 188.77642864 C-312.12050996 183.3789502 -313.66792039 177.98159778 -315.21566689 172.58434159 C-316.10924271 169.46822831 -317.00254423 166.35203686 -317.89543533 163.23572731 C-318.86917875 159.83732791 -319.84367967 156.43914659 -320.81835938 153.04101562 C-321.09865431 152.06207683 -321.37894924 151.08313803 -321.66773796 150.07453442 C-323.4008206 144.03604338 -325.18072334 138.01308479 -327 132 C-328.03125 132.165 -329.0625 132.33 -330.125 132.5 C-346.73281656 134.4555777 -362.30234378 132.10883271 -376 122 C-388.10986738 111.8039098 -396.48492686 98.94066203 -398.22314453 82.94677734 C-399.46565587 66.01512595 -394.77563819 51.74380405 -383.75 38.8125 C-372.94825911 27.30747381 -359.36236659 21.05021945 -343.6640625 19.81640625 C-329.48198016 19.39343186 -315.45818974 24.50837123 -305 34 C-304.25105469 34.62261719 -303.50210938 35.24523437 -302.73046875 35.88671875 C-293.28349526 44.33588584 -286.34482455 58.03398711 -285.62890625 70.75 C-285.27830644 85.69804277 -286.97650822 97.78802275 -296.44921875 109.94921875 C-297.92736494 111.90394608 -298.93910123 113.8010514 -300 116 C-288.6097251 126.73012292 -277.16383223 137.33553117 -265.24829102 147.48242188 C-261.53853437 150.65082548 -257.90341603 153.88385726 -254.3125 157.1875 C-249.9847306 161.1556734 -245.52122506 164.89492191 -240.953125 168.58203125 C-237.56641087 171.35501544 -234.2506135 174.20243136 -230.9375 177.0625 C-226.25007227 181.10026006 -221.51973236 185.05902655 -216.6640625 188.89453125 C-214.65013951 190.48618006 -212.64617161 192.08747421 -210.6484375 193.69921875 C-164.67872857 230.75347816 -116.11416227 264.97524343 -63 291 C-60.33120176 292.32911553 -57.66551891 293.6643114 -55 295 C-54.85304688 294.01 -54.85304688 294.01 -54.703125 293 C-53.41931937 284.50032135 -52.01616048 276.02285432 -50.58496094 267.546875 C-50.05011038 264.36563964 -49.52469466 261.18292621 -49 258 C-48.88936218 257.34200409 -48.77872437 256.68400818 -48.66473389 256.006073 C-46.31556964 241.99250214 -44.58452334 227.93112655 -43 213.8125 C-42.80440491 212.08063446 -42.80440491 212.08063446 -42.6048584 210.31378174 C-39.31126449 180.99857801 -37.18215316 151.6519393 -35.64550781 122.19677734 C-35.28895406 115.43321156 -34.84859127 108.72173615 -34 102 C-35.010625 102.103125 -36.02125 102.20625 -37.0625 102.3125 C-50.40497538 102.26518626 -63.42351913 94.54532389 -72.8125 85.6875 C-77.06197901 81.23276887 -80.11604193 76.4143987 -83 71 C-83.5775 69.989375 -84.155 68.97875 -84.75 67.9375 C-89.87312104 55.89816555 -90.41663875 39.08592955 -85.9375 26.8125 C-85.02256735 24.84385278 -84.04395552 22.90337345 -83 21 C-82.46890625 20.02804687 -81.9378125 19.05609375 -81.390625 18.0546875 C-73.69280054 5.09550596 -62.56502777 -3.86089606 -48.125 -8.5 C-30.84228524 -12.82067869 -14.99303982 -9.05206976 0 0 Z " fill="#F98E00" transform="translate(735,723)"/>
<path d="M0 0 C1.39352206 1.01675499 2.7693147 2.05831738 4.125 3.125 C5.15367187 3.91003906 5.15367187 3.91003906 6.203125 4.7109375 C17.10965669 13.577698 24.45366794 27.13617965 26.125 41.125 C27.52704665 57.23775148 22.78215456 72.32607573 12.48803711 84.75341797 C3.05565613 95.54245342 -9.69976597 102.11757555 -23.875 104.125 C-31.52916851 104.53796016 -38.4758357 104.13155303 -45.875 102.125 C-46.04635719 103.04609306 -46.04635719 103.04609306 -46.22117615 103.98579407 C-47.35697006 109.89827687 -48.77258722 115.64487452 -50.47265625 121.41796875 C-50.73427551 122.31963776 -50.99589478 123.22130676 -51.26544189 124.15029907 C-51.84368743 126.14170271 -52.42379647 128.13256596 -53.00552368 130.12295532 C-54.31993331 134.62131881 -55.6245169 139.12251722 -56.92985535 143.6235199 C-57.6683607 146.16984136 -58.40725286 148.7160474 -59.14668274 151.26210022 C-64.25730713 168.86455295 -69.31215234 186.48309069 -74.37241745 204.10007095 C-75.1919815 206.95310079 -76.01174534 209.80607314 -76.83157349 212.6590271 C-83.53175603 235.97560282 -90.21771693 259.29613852 -96.875 282.625 C-103.82716152 306.98694741 -110.81335979 331.33900974 -117.8125 355.6875 C-118.07356159 356.59570496 -118.33462318 357.50390991 -118.60359573 358.43963623 C-121.29621674 367.80693418 -123.98915463 377.17414101 -126.68227291 386.54129601 C-132.43974735 406.56690895 -138.19542394 426.5930383 -143.94908524 446.61974716 C-144.52345731 448.61894081 -145.09784638 450.61812957 -145.67225266 452.61731339 C-151.61744287 473.30923388 -157.55969436 494.00196799 -163.47265625 514.703125 C-163.68732985 515.45467865 -163.90200344 516.2062323 -164.1231823 516.9805603 C-166.27941358 524.53007306 -168.43368994 532.08014039 -170.58569336 539.63085938 C-170.92720932 540.82829773 -171.26872528 542.02573608 -171.62059021 543.25946045 C-172.24095401 545.43478509 -172.86077306 547.61026522 -173.47987366 549.78594971 C-175.22793262 555.91454381 -177.02668207 562.02588455 -178.875 568.125 C-189.54292701 567.31569914 -199.95082602 565.17836081 -210.3984375 562.95703125 C-222.49799483 560.38453443 -234.59397009 558.07574672 -246.80859375 556.1171875 C-256.84209521 554.49982137 -266.84388933 552.69048688 -276.8359375 550.8359375 C-346.41728991 538.14754522 -417.39247257 531.00386646 -487.94995117 526.77050781 C-494.28748329 526.38691463 -500.57237437 525.89592202 -506.875 525.125 C-504.99161374 508.05061668 -502.03136121 491.17498197 -498.37548828 474.39477539 C-496.79724717 467.02785381 -495.58471125 459.61188257 -494.375 452.17700195 C-492.45298436 440.41497951 -490.22584489 428.7154293 -487.83984375 417.0390625 C-486.05561731 408.29711362 -484.43236634 399.57434103 -483.10964966 390.75038147 C-482.11636612 384.30076794 -480.85926253 377.92256431 -479.546875 371.53125 C-477.21833477 360.03409927 -475.11394041 348.50828227 -473.10769653 336.9510498 C-472.15467749 331.4647755 -471.189869 325.98056938 -470.2265625 320.49609375 C-470.03189896 319.38658356 -469.83723541 318.27707336 -469.63667297 317.13394165 C-467.76985323 306.50290415 -465.87743821 295.87659588 -463.95742798 285.2550354 C-463.61377669 283.35144892 -463.27144757 281.44762323 -462.93051147 279.54354858 C-462.45846581 276.90859675 -461.98182885 274.27451634 -461.50390625 271.640625 C-461.36781952 270.87625626 -461.23173279 270.11188751 -461.09152222 269.32435608 C-460.26882933 264.82768546 -459.19942188 260.50110014 -457.875 256.125 C-456.79166667 256.9375 -455.70833333 257.75 -454.625 258.5625 C-453.88894531 259.11035156 -453.15289063 259.65820312 -452.39453125 260.22265625 C-450.64647553 261.54250607 -448.91570177 262.88543641 -447.19921875 264.24609375 C-424.92114947 281.6404726 -400.83587558 287.00820602 -372.70458984 283.75878906 C-355.34023765 280.98717685 -337.54252053 275.35904551 -321.64794922 267.86157227 C-319.875 267.125 -319.875 267.125 -317.875 267.125 C-317.545 266.135 -317.215 265.145 -316.875 264.125 C-316.875 264.785 -316.875 265.445 -316.875 266.125 C-297.28411983 256.66378753 -278.39937017 246.55480207 -259.875 235.125 C-258.96621094 234.56651367 -258.05742188 234.00802734 -257.12109375 233.43261719 C-246.14014349 226.66268744 -235.42166606 219.55179689 -224.875 212.125 C-224.30007813 211.72104004 -223.72515625 211.31708008 -223.1328125 210.90087891 C-208.12383324 200.33147963 -193.34919471 189.41523785 -178.875 178.125 C-178.33633301 177.70718262 -177.79766602 177.28936523 -177.24267578 176.85888672 C-167.94249442 169.64467671 -158.84288714 162.20137678 -149.77734375 154.6953125 C-147.25869036 152.6162598 -144.72311001 150.55831871 -142.1875 148.5 C-137.41083561 144.60038628 -132.73378704 140.59186589 -128.06567383 136.5637207 C-124.5520637 133.53852594 -120.9934336 130.5875681 -117.375 127.6875 C-111.70330098 123.08814584 -106.41151437 118.1185621 -101.08984375 113.125 C-98.09993062 110.32233396 -95.04135305 107.61323539 -91.9375 104.9375 C-88.65902265 102.05641384 -85.46054249 99.08711863 -82.26123047 96.11865234 C-78.88676625 93.00210895 -75.4220734 90.04054698 -71.875 87.125 C-72.42027344 86.35929688 -72.42027344 86.35929688 -72.9765625 85.578125 C-83.0498347 71.01062366 -89.23469803 56.11463829 -86.21875 38.234375 C-82.92557663 22.39722209 -74.73019731 9.25641923 -61.125 0.3125 C-42.32894602 -11.29580829 -18.93327496 -11.89726062 0 0 Z " fill="#F8FE29" transform="translate(1611.875,751.875)"/>
<path d="M0 0 C6.2707849 0.01137465 12.54139953 0.0046094 18.81217861 -0.0068779 C52.49149519 -0.05912389 86.08316672 0.64711961 119.72436523 2.26074219 C120.53593456 2.29962051 121.34750389 2.33849884 122.18366623 2.3785553 C131.64034873 2.83697009 141.08954913 3.38873541 150.53686523 4.01074219 C151.81425568 4.0934436 153.09164612 4.17614502 154.40774536 4.26135254 C220.33419555 8.55128261 286.04180819 15.84665437 351.24291992 26.53076172 C355.26755084 27.18940965 359.2955372 27.8218923 363.32592773 28.44433594 C373.23526795 29.97880197 383.08498363 31.65361168 392.90429688 33.68896484 C401.47931667 35.45610547 410.10187188 36.94780041 418.73144531 38.42260742 C425.22772929 39.55407971 431.59078825 40.92022596 437.97436523 42.5715332 C441.78131014 43.52563525 445.61183084 44.26065095 449.47436523 44.94824219 C450.18334961 45.07779297 450.89233398 45.20734375 451.62280273 45.34082031 C453.32269336 45.65093549 455.02343375 45.9563877 456.72436523 46.26074219 C454.09627609 48.88883133 452.16812475 48.95786524 448.52905273 49.66308594 C447.26319336 49.9121167 445.99733398 50.16114746 444.69311523 50.41772461 C443.32856601 50.67807597 441.96398201 50.93824513 440.59936523 51.19824219 C439.21642751 51.46753804 437.83361485 51.73747697 436.45092773 52.00805664 C428.34758787 53.58842004 420.23469635 55.11841936 412.11499023 56.61230469 C407.52198805 57.4906899 402.95859391 58.4898558 398.39624023 59.51464844 C395.42071542 60.11924976 392.45721478 60.65364217 389.46264648 61.14916992 C388.39391296 61.32604843 387.32517944 61.50292694 386.22406006 61.68516541 C376.14115016 63.34344966 366.05574281 64.98625972 355.96948624 66.62404633 C352.08770367 67.25438898 348.20611062 67.88585049 344.32495117 68.52001953 C340.52489346 69.14090868 336.72436657 69.75885061 332.92351532 70.37486267 C331.49637373 70.60664683 330.0693897 70.83940383 328.64258575 71.07325745 C318.69314476 72.70296773 308.73184784 74.05258067 298.72436523 75.26074219 C296.00042065 75.61113406 293.27862098 75.97519942 290.55639648 76.33886719 C228.93887945 84.44441089 166.82660008 89.81263511 104.71559143 92.04399109 C101.64370822 92.15446094 98.57191975 92.26652261 95.50025749 92.3829937 C76.92606549 93.08510135 58.37899207 93.43596717 39.79077148 93.46386719 C37.78007774 93.46818363 35.76938399 93.47250044 33.7586903 93.47684169 C28.15190247 93.4885231 22.54512419 93.49614063 16.93832546 93.49963689 C10.60676474 93.50361692 4.27535709 93.51568695 -2.05615234 93.54199219 C-42.55706557 93.70637231 -82.84124164 92.68030118 -123.27563477 90.26074219 C-124.66827356 90.17748058 -124.66827356 90.17748058 -126.08904648 90.09253693 C-136.11845705 89.48599897 -146.13582776 88.76251349 -156.15063477 87.94824219 C-158.14325304 87.79083574 -160.13587147 87.63343111 -162.12849712 87.47611809 C-213.08515675 83.43473691 -263.86490508 77.75021825 -314.27563477 69.26074219 C-317.65212312 68.69473527 -321.0288035 68.12987624 -324.40560913 67.56576538 C-327.59005127 67.03369715 -330.77406748 66.49937124 -333.95727539 65.95996094 C-339.86064089 64.96557034 -345.7646766 64.0358536 -351.69360352 63.20605469 C-356.34943779 62.55233675 -360.92925053 61.80580259 -365.52563477 60.82324219 C-371.99950505 59.48241968 -378.48912922 58.36096463 -385.02270508 57.35083008 C-389.56238655 56.62758141 -393.85320146 55.54175953 -398.27563477 54.26074219 C-399.76969709 54.04730471 -401.27058902 53.87305903 -402.77563477 53.76074219 C-406.80410295 53.36936672 -410.38310379 52.40935789 -414.27563477 51.26074219 C-417.86831056 50.49441455 -421.46600197 49.76017061 -425.06860352 49.04199219 C-427.81582844 48.37275347 -429.80847305 47.56477991 -432.27563477 46.26074219 C-401.29995676 39.17807064 -370.14790213 33.59336499 -338.7902832 28.48828125 C-333.91399623 27.69416775 -329.03969232 26.88955356 -324.16723633 26.07226562 C-261.78166553 15.61082569 -199.06763917 8.8787861 -135.98266602 4.36230469 C-135.13725754 4.301185 -134.29184906 4.24006531 -133.42082214 4.17709351 C-88.98024042 1.06849981 -44.54142324 -0.08145156 0 0 Z " fill="#E73000" transform="translate(975.275634765625,1273.7392578125)"/>
<path d="M0 0 C1.39352206 1.01675499 2.7693147 2.05831738 4.125 3.125 C4.81078125 3.64835938 5.4965625 4.17171875 6.203125 4.7109375 C17.10965669 13.577698 24.45366794 27.13617965 26.125 41.125 C27.52704665 57.23775148 22.78215456 72.32607573 12.48803711 84.75341797 C3.05565613 95.54245342 -9.69976597 102.11757555 -23.875 104.125 C-31.52916851 104.53796016 -38.4758357 104.13155303 -45.875 102.125 C-45.98923813 102.73906204 -46.10347626 103.35312408 -46.22117615 103.98579407 C-47.35697006 109.89827687 -48.77258722 115.64487452 -50.47265625 121.41796875 C-50.73427551 122.31963776 -50.99589478 123.22130676 -51.26544189 124.15029907 C-51.84368743 126.14170271 -52.42379647 128.13256596 -53.00552368 130.12295532 C-54.31993331 134.62131881 -55.6245169 139.12251722 -56.92985535 143.6235199 C-57.6683607 146.16984136 -58.40725286 148.7160474 -59.14668274 151.26210022 C-64.25730713 168.86455295 -69.31215234 186.48309069 -74.37241745 204.10007095 C-75.1919815 206.95310079 -76.01174534 209.80607314 -76.83157349 212.6590271 C-83.53175603 235.97560282 -90.21771693 259.29613852 -96.875 282.625 C-103.82716152 306.98694741 -110.81335979 331.33900974 -117.8125 355.6875 C-118.07356159 356.59570496 -118.33462318 357.50390991 -118.60359573 358.43963623 C-121.29621674 367.80693418 -123.98915463 377.17414101 -126.68227291 386.54129601 C-132.43974735 406.56690895 -138.19542394 426.5930383 -143.94908524 446.61974716 C-144.52345731 448.61894081 -145.09784638 450.61812957 -145.67225266 452.61731339 C-151.61744287 473.30923388 -157.55969436 494.00196799 -163.47265625 514.703125 C-163.68732985 515.45467865 -163.90200344 516.2062323 -164.1231823 516.9805603 C-166.27941358 524.53007306 -168.43368994 532.08014039 -170.58569336 539.63085938 C-170.92720932 540.82829773 -171.26872528 542.02573608 -171.62059021 543.25946045 C-172.24095401 545.43478509 -172.86077306 547.61026522 -173.47987366 549.78594971 C-175.22793262 555.91454381 -177.02668207 562.02588455 -178.875 568.125 C-187.67455651 567.45525141 -196.23245142 565.83753786 -204.875 564.125 C-205.86242188 563.94839844 -206.84984375 563.77179687 -207.8671875 563.58984375 C-210.3125 563.125 -210.3125 563.125 -213.875 562.125 C-215.0401901 558.62942971 -214.65334178 557.24628456 -213.8359375 553.69921875 C-213.58755127 552.60327393 -213.33916504 551.5073291 -213.08325195 550.37817383 C-212.67079224 548.61316528 -212.67079224 548.61316528 -212.25 546.8125 C-211.97438232 545.60295654 -211.69876465 544.39341309 -211.41479492 543.1472168 C-210.5759079 539.47132251 -209.72673188 535.79793691 -208.875 532.125 C-207.97599007 528.22989083 -207.08001589 524.33410224 -206.1875 520.4375 C-205.97899414 519.52959717 -205.77048828 518.62169434 -205.55566406 517.6862793 C-204.41769825 512.68225332 -203.39576878 507.67930747 -202.5 502.625 C-201.10085469 494.874053 -199.3090025 487.22678934 -197.5 479.5625 C-194.69600001 467.68257831 -192.01426091 455.78359915 -189.45898438 443.84765625 C-188.48189519 439.29226388 -187.49055449 434.73997989 -186.5 430.1875 C-186.29874512 429.26138916 -186.09749023 428.33527832 -185.89013672 427.38110352 C-183.90862607 418.26691961 -181.91389825 409.15563256 -179.91955566 400.04425049 C-177.42566579 388.64998501 -174.94221855 377.25348511 -172.46777344 365.85498047 C-171.43778835 361.11144946 -170.40629696 356.36824594 -169.375 351.625 C-168.95832658 349.7083348 -168.5416599 347.79166814 -168.125 345.875 C-150.625 265.375 -150.625 265.375 -150.00024414 262.5012207 C-149.58270964 260.58049677 -149.16522935 258.65976105 -148.74780273 256.73901367 C-147.71985352 252.00932603 -146.69102802 247.27983282 -145.66015625 242.55078125 C-143.11681511 230.87749756 -140.60058306 219.19865365 -138.10351562 207.51538086 C-136.95604194 202.15108809 -135.80496054 196.78779463 -134.62890625 191.4296875 C-134.43151855 190.53008301 -134.23413086 189.63047852 -134.03076172 188.70361328 C-133.6355265 186.90244667 -133.24001905 185.10133978 -132.84423828 183.30029297 C-131.54970916 177.36111284 -130.31700405 171.41121662 -129.11328125 165.453125 C-128.95954544 164.69504547 -128.80580963 163.93696594 -128.64741516 163.15591431 C-127.88249273 159.38375354 -127.12292102 155.61067904 -126.37329102 151.83544922 C-122.26603642 131.3350295 -122.26603642 131.3350295 -114.1875 124.5 C-113.55682617 123.94151367 -112.92615234 123.38302734 -112.27636719 122.80761719 C-110.48939937 121.23033988 -108.6849517 119.67577896 -106.875 118.125 C-105.45798936 116.87538995 -104.04124225 115.62548084 -102.625 114.375 C-102.01914063 113.85164062 -101.41328125 113.32828125 -100.7890625 112.7890625 C-95.88077501 108.52185746 -91.08543499 104.12397335 -86.26171875 99.76171875 C-81.52085426 95.48127206 -76.74705388 91.25565438 -71.875 87.125 C-72.23851562 86.61453125 -72.60203125 86.1040625 -72.9765625 85.578125 C-83.0498347 71.01062366 -89.23469803 56.11463829 -86.21875 38.234375 C-82.92557663 22.39722209 -74.73019731 9.25641923 -61.125 0.3125 C-42.32894602 -11.29580829 -18.93327496 -11.89726062 0 0 Z " fill="#FBE000" transform="translate(1611.875,751.875)"/>
<path d="M0 0 C10.54947919 9.04469764 18.09531051 20.95521844 20.13671875 34.89453125 C21.24658689 53.21645276 18.06912551 67.79402332 5.88671875 82.08203125 C-3.51790601 92.06564289 -14.77189277 98.29524336 -28.59985352 99.45361328 C-29.58663589 99.53789581 -30.57341827 99.62217834 -31.59010315 99.70901489 C-32.34025192 99.77023529 -33.0904007 99.83145569 -33.86328125 99.89453125 C-32.15522096 132.78010345 -30.08111188 165.59395821 -26.64628983 198.34896469 C-26.43010126 200.41573183 -26.21704475 202.4828015 -26.00460815 204.54995728 C-23.39371112 229.82406251 -19.63441297 254.8677195 -15.01527405 279.85371399 C-14.13451331 284.62148115 -13.68566553 289.04628006 -13.86328125 293.89453125 C-27.01791045 299.86685701 -40.26064098 304.48842552 -54.2265625 308.19433594 C-55.80023179 308.61223256 -57.37157452 309.03931347 -58.9375 309.48535156 C-81.95518298 316.01368573 -107.36691668 313.24926459 -128.2421875 301.96484375 C-133.04334796 299.26862556 -137.51543051 296.27376533 -141.86328125 292.89453125 C-142.68441406 292.27578125 -143.50554687 291.65703125 -144.3515625 291.01953125 C-156.8942842 281.20833561 -168.19157702 269.52507425 -177.86328125 256.89453125 C-178.72008698 255.82710661 -179.57821853 254.76074517 -180.4375 253.6953125 C-181.28889605 252.61678092 -182.13918291 251.53737269 -182.98828125 250.45703125 C-184.13683594 249.00490234 -184.13683594 249.00490234 -185.30859375 247.5234375 C-186.86328125 244.89453125 -186.86328125 244.89453125 -186.64257812 242.94213867 C-185.74730788 240.58981049 -184.6928522 239.31192484 -182.94921875 237.50390625 C-182.3567334 236.8812085 -181.76424805 236.25851074 -181.15380859 235.61694336 C-180.52168457 234.96604736 -179.88956055 234.31515137 -179.23828125 233.64453125 C-177.9458251 232.28720965 -176.65414815 230.92914563 -175.36328125 229.5703125 C-174.74839844 228.92658691 -174.13351562 228.28286133 -173.5 227.61962891 C-170.51162475 224.46988853 -167.68259903 221.19489893 -164.86328125 217.89453125 C-163.58130859 216.41339844 -163.58130859 216.41339844 -162.2734375 214.90234375 C-146.10321745 196.18837144 -130.60439216 176.93025011 -115.64648438 157.23681641 C-113.75089321 154.74690654 -111.84684595 152.26363002 -109.94140625 149.78125 C-98.04871729 134.26923368 -86.61200537 118.48103525 -75.44287109 102.44116211 C-74.88809082 101.64460205 -74.33331055 100.84804199 -73.76171875 100.02734375 C-73.02961182 98.97377686 -73.02961182 98.97377686 -72.28271484 97.89892578 C-71.28666199 96.49239087 -70.24890171 95.11491342 -69.18212891 93.76123047 C-67.67093891 92.00322136 -67.67093891 92.00322136 -67.86328125 89.89453125 C-69.41711272 88.36215574 -69.41711272 88.36215574 -71.42578125 86.76953125 C-83.11615031 76.75216553 -90.64302967 63.98858029 -92.21484375 48.41015625 C-92.58726406 33.17477982 -88.57286604 19.08409637 -78.42578125 7.51953125 C-76.92336857 5.95990749 -75.40409864 4.41622502 -73.86328125 2.89453125 C-73.321875 2.33121094 -72.78046875 1.76789062 -72.22265625 1.1875 C-52.33302658 -17.84828193 -21.0846674 -15.50427794 0 0 Z " fill="#E73000" transform="translate(1307.86328125,725.10546875)"/>
<path d="M0 0 C11.6427425 8.56130724 19.93927246 20.77564533 23 35 C23.21625181 38.05987223 23.18512447 41.12069089 23.1875 44.1875 C23.19974609 45.00025391 23.21199219 45.81300781 23.22460938 46.65039062 C23.25958159 61.30374915 18.05934567 74.31539336 8 85 C5.41945619 87.44865912 2.77326239 89.77253925 0 92 C1.60380756 96.84893865 4.35340832 100.59269063 7.3125 104.6875 C7.84375488 105.43080566 8.37500977 106.17411133 8.92236328 106.93994141 C10.60961092 109.29714741 12.3044169 111.64878494 14 114 C15.06402058 115.48291616 16.12782651 116.96598637 17.19140625 118.44921875 C20.44483944 122.97788961 23.71827889 127.49179628 27 132 C27.84715576 133.16450684 27.84715576 133.16450684 28.71142578 134.35253906 C39.84785004 149.63486894 51.34041902 164.60649658 63.31665039 179.24072266 C66.77336941 183.46847079 70.15345903 187.74728754 73.5 192.0625 C78.88473324 198.97899543 84.6161956 205.56812385 90.39453125 212.15625 C91.94430089 213.93603411 93.47579449 215.72955062 95 217.53125 C100.97998191 224.59606958 107.12119674 231.44771684 113.54467773 238.11523438 C114.11130127 238.71013672 114.6779248 239.30503906 115.26171875 239.91796875 C115.76662842 240.44156982 116.27153809 240.9651709 116.79174805 241.50463867 C118 243 118 243 119 246 C114.07672752 254.72209384 106.58890174 262.48661771 100 270 C99.54189941 270.52271484 99.08379883 271.04542969 98.61181641 271.58398438 C81.77850409 290.6613394 58.559383 311.32570872 32 314 C17.45449628 314.8012247 3.16264322 314.55515191 -11 311 C-11.79116211 310.80664062 -12.58232422 310.61328125 -13.39746094 310.4140625 C-27.46614559 306.89824775 -40.7111402 301.76036575 -54 296 C-54.44317913 288.87630591 -53.40416335 282.56077569 -51.81103516 275.62548828 C-40.66675501 225.80834195 -38.29907898 173.06171424 -35.64550781 122.19677734 C-35.28895406 115.43321156 -34.84859127 108.72173615 -34 102 C-35.010625 102.103125 -36.02125 102.20625 -37.0625 102.3125 C-50.40497538 102.26518626 -63.42351913 94.54532389 -72.8125 85.6875 C-77.06197901 81.23276887 -80.11604193 76.4143987 -83 71 C-83.5775 69.989375 -84.155 68.97875 -84.75 67.9375 C-89.87312104 55.89816555 -90.41663875 39.08592955 -85.9375 26.8125 C-85.02256735 24.84385278 -84.04395552 22.90337345 -83 21 C-82.46890625 20.02804687 -81.9378125 19.05609375 -81.390625 18.0546875 C-73.69280054 5.09550596 -62.56502777 -3.86089606 -48.125 -8.5 C-30.84228524 -12.82067869 -14.99303982 -9.05206976 0 0 Z " fill="#F75300" transform="translate(735,723)"/>
<path d="M0 0 C1.54181437 8.66079611 2.68957819 17.32418035 3.65625 26.06640625 C3.80528048 27.39382313 3.95457859 28.72120998 4.10412598 30.04856873 C4.4941946 33.5178403 4.88033166 36.98753851 5.26568604 40.45733643 C5.57566969 43.24234461 5.88851367 46.02702787 6.20149231 48.81170082 C7.85619431 63.53533679 9.48099862 78.26167687 11 93 C-79.32147832 93.83046874 -169.25886381 88.45690523 -312 69 C-315.37648835 68.43399308 -318.75316873 67.86913405 -322.12997437 67.30502319 C-325.31441651 66.77295496 -328.49843271 66.23862905 -331.68164062 65.69921875 C-337.58500612 64.70482815 -343.48904184 63.77511141 -349.41796875 62.9453125 C-354.07380303 62.29159457 -358.65361577 61.5450604 -363.25 60.5625 C-369.72387028 59.22167749 -376.21349446 58.10022245 -382.74707031 57.09008789 C-387.28675179 56.36683923 -391.57756669 55.28101734 -396 54 C-397.49406232 53.78656253 -398.99495425 53.61231685 -400.5 53.5 C-404.52846819 53.10862453 -408.10746902 52.1486157 -412 51 C-415.59267579 50.23367237 -419.1903672 49.49942842 -422.79296875 48.78125 C-425.54019368 48.11201128 -427.53283829 47.30403772 -430 46 C-399.024322 38.91732846 -367.87226736 33.3326228 -336.51464844 28.22753906 C-331.63836146 27.43342556 -326.76405755 26.62881137 -321.89160156 25.81152344 C-227.42952487 9.97117239 -130.77077804 0.29893043 0 0 Z " fill="#F65300" transform="translate(973,1274)"/>
<path d="M0 0 C1.08333333 0.8125 2.16666667 1.625 3.25 2.4375 C3.98605469 2.98535156 4.72210937 3.53320312 5.48046875 4.09765625 C7.22852447 5.41750607 8.95929823 6.76043641 10.67578125 8.12109375 C27.44995448 21.21811399 44.50309871 27.7597377 65.875 28.5625 C66.94492188 28.60568359 68.01484375 28.64886719 69.1171875 28.69335938 C71.74467918 28.79892824 74.37227772 28.90039059 77 29 C76.46295376 37.00147287 75.47794009 44.78459008 74.00634766 52.66503906 C73.80619553 53.76275131 73.6060434 54.86046356 73.39982605 55.99143982 C72.74339066 59.58386489 72.07880573 63.17472879 71.4140625 66.765625 C70.9513576 69.2883816 70.48915717 71.81123078 70.0274353 74.33416748 C68.93743747 80.28309408 67.84227171 86.23104759 66.74457204 92.17855716 C65.506081 98.89062543 64.27453518 105.60396199 63.04344487 112.31739092 C55.6850611 152.43904442 55.6850611 152.43904442 52.59288025 168.81491089 C51.4835136 174.7746838 50.4703182 180.75084509 49.45117188 186.7265625 C49.29068359 187.65984375 49.13019531 188.593125 48.96484375 189.5546875 C48.8268335 190.36405762 48.68882324 191.17342773 48.54663086 192.00732422 C48.09998415 194.45261021 47.62294809 196.88620323 47.12963867 199.32226562 C45.65950168 206.62926472 44.31823371 213.9604765 42.9609375 221.2890625 C42.67239348 222.84419869 42.3837877 224.39932341 42.09512329 225.95443726 C41.34158966 230.0148399 40.58888609 234.07539597 39.83636475 238.13598633 C39.06589755 242.29257481 38.29463235 246.44901522 37.5234375 250.60546875 C36.01485101 258.73683576 34.50714281 266.86836529 33 275 C32.24325989 274.94759659 31.48651978 274.89519318 30.70684814 274.84120178 C17.75837568 273.94504077 4.80986263 273.05023907 -8.140625 272.18359375 C-10.01041914 272.05797947 -11.88021083 271.93232887 -13.75 271.80664062 C-16.53834755 271.61921164 -19.32673066 271.43240685 -22.11523438 271.24731445 C-24.91548929 271.06121855 -27.71556711 270.87262806 -30.515625 270.68359375 C-31.34064514 270.62940781 -32.16566528 270.57522186 -33.01568604 270.51939392 C-38.36465219 270.15538893 -43.67483567 269.62322124 -49 269 C-47.11661374 251.92561668 -44.15636121 235.04998197 -40.50048828 218.26977539 C-38.92224717 210.90285381 -37.70971125 203.48688257 -36.5 196.05200195 C-34.57798436 184.28997951 -32.35084489 172.5904293 -29.96484375 160.9140625 C-28.18061731 152.17211362 -26.55736634 143.44934103 -25.23464966 134.62538147 C-24.24136612 128.17576794 -22.98426253 121.79756431 -21.671875 115.40625 C-19.34333477 103.90909927 -17.23894041 92.38328227 -15.23269653 80.8260498 C-14.27967749 75.3397755 -13.314869 69.85556938 -12.3515625 64.37109375 C-12.15689896 63.26158356 -11.96223541 62.15207336 -11.76167297 61.00894165 C-9.89485323 50.37790415 -8.00243821 39.75159588 -6.08242798 29.1300354 C-5.73877669 27.22644892 -5.39644757 25.32262323 -5.05551147 23.41854858 C-4.58346581 20.78359675 -4.10682885 18.14951634 -3.62890625 15.515625 C-3.42477615 14.36907188 -3.42477615 14.36907188 -3.21652222 13.19935608 C-2.39382933 8.70268546 -1.32442188 4.37610014 0 0 Z " fill="#F8FE29" transform="translate(1154,1008)"/>
<path d="M0 0 C-0.52462784 7.48187327 -1.9132678 14.53539766 -3.6875 21.8125 C-5.9272193 31.24257681 -8.00955041 40.68883731 -9.9375 50.1875 C-12.13367562 60.97589613 -14.49127193 71.71953794 -16.94647217 82.45159912 C-19.10150765 91.88316312 -21.13196282 101.33254637 -23.0625 110.8125 C-25.13462226 120.98672991 -27.38022405 131.10481656 -29.75463867 141.21240234 C-31.59346644 149.09581762 -33.2639872 157.00465448 -34.875 164.9375 C-37.03604004 175.55899399 -39.36815064 186.12868413 -41.8125 196.6875 C-44.90217689 210.03548984 -47.83635513 223.41155236 -50.6875 236.8125 C-53.68493828 250.9008084 -56.73108709 264.97159986 -60 279 C-72.9544234 277.80662281 -85.89969561 276.5223243 -98.84225464 275.20715332 C-100.61115138 275.02768207 -102.38013343 274.84904968 -104.14920044 274.67126465 C-106.67263648 274.41738083 -109.19572446 274.16027131 -111.71875 273.90234375 C-112.47949326 273.82634445 -113.24023651 273.75034515 -114.02403259 273.67204285 C-117.73159893 273.28942206 -121.36121407 272.81424557 -125 272 C-124.37556479 264.04989788 -123.06432777 256.29522021 -121.6015625 248.4609375 C-121.36593597 247.18127106 -121.13030945 245.90160461 -120.88754272 244.5831604 C-120.26430467 241.19884992 -119.63619005 237.81546277 -119.00701904 234.43225098 C-118.37662125 231.03742945 -117.75106509 227.64171644 -117.125 224.24609375 C-115.32174462 214.47409078 -113.51605897 204.70259461 -111.66381836 194.93974304 C-109.97149128 186.01174655 -108.49961873 177.05350418 -107.0703125 168.08007812 C-105.78448734 160.20016935 -104.2887728 152.38371824 -102.69799805 144.56054688 C-100.08578517 131.59895822 -97.69515776 118.60295007 -95.35546875 105.58984375 C-94.93683463 103.27141186 -94.51799185 100.95301763 -94.09895325 98.63465881 C-93.01357153 92.62660172 -91.93096283 86.61804842 -90.84899902 80.609375 C-89.73764797 74.44044352 -88.62358102 68.27200255 -87.50976562 62.10351562 C-85.3372363 50.06947983 -83.16764611 38.03491628 -81 26 C-80.32762802 25.863591 -79.65525604 25.72718201 -78.96250916 25.5866394 C-75.85835638 24.95467973 -72.75535789 24.31721358 -69.65234375 23.6796875 C-68.59511108 23.46530029 -67.53787842 23.25091309 -66.4486084 23.0300293 C-51.44094724 19.93572558 -37.25921688 15.41657307 -23.2109375 9.3203125 C-20 8 -20 8 -18 8 C-17.67 7.01 -17.34 6.02 -17 5 C-17 5.66 -17 6.32 -17 7 C-16.02417969 6.4946875 -15.04835938 5.989375 -14.04296875 5.46875 C-12.7579742 4.81218344 -11.47280899 4.1559508 -10.1875 3.5 C-9.54490234 3.16613281 -8.90230469 2.83226562 -8.24023438 2.48828125 C-5.30452301 0.99760916 -3.33873483 0 0 0 Z " fill="#FBDF00" transform="translate(1312,1011)"/>
<path d="M0 0 C1.66059405 1.66059405 1.52472397 3.79581546 1.8671875 6.07421875 C2.02920654 7.12778564 2.19122559 8.18135254 2.3581543 9.2668457 C2.61399292 10.96006958 2.61399292 10.96006958 2.875 12.6875 C3.96962532 19.77781172 5.08495242 26.81812976 6.6875 33.8125 C8.0658899 39.8579383 8.63562102 45.82031218 9 52 C-2.67777299 51.54926605 -13.93913677 50.23475702 -25.4375 48.1875 C-27.80467877 47.77679425 -30.17242826 47.36950766 -32.54026794 46.96263123 C-34.11543868 46.6919334 -35.69044292 46.42026484 -37.26527405 46.14759827 C-44.26680222 44.9394909 -51.28537755 43.86099627 -58.3125 42.8125 C-66.06440441 41.64583927 -73.73495095 40.33746448 -81.40625 38.71875 C-86.49772729 37.70045454 -91.61904487 36.88296018 -96.75 36.08959961 C-101.28866935 35.36655752 -105.57856911 34.28072698 -110 33 C-111.49406232 32.78656253 -112.99495425 32.61231685 -114.5 32.5 C-118.52846819 32.10862453 -122.10746902 31.1486157 -126 30 C-129.59267579 29.23367237 -133.1903672 28.49942842 -136.79296875 27.78125 C-139.54019368 27.11201128 -141.53283829 26.30403772 -144 25 C-111.65128768 17.60338049 -79.09265471 11.90447983 -46.35058594 6.54998779 C-42.22548052 5.87286514 -38.1021423 5.18545687 -33.97904968 4.49620056 C-30.50361368 3.91570924 -27.02743515 3.3397903 -23.55093384 2.76571655 C-21.99668266 2.50877191 -20.44261951 2.25068679 -18.88876343 1.99136353 C-16.79509439 1.64302199 -14.70049965 1.30097828 -12.60546875 0.9609375 C-11.46231201 0.77321777 -10.31915527 0.58549805 -9.14135742 0.39208984 C-6.04593813 0.00573379 -3.1154999 -0.14410586 0 0 Z " fill="#E73101" transform="translate(687,1295)"/>
</svg>
